<mxfile host="app.diagrams.net" agent="Mozilla/5.0 (Windows NT 10.0; Win64; x64; rv:131.0) Gecko/20100101 Firefox/131.0" version="24.8.0">
  <diagram name="Страница — 1" id="FqWlxwobE7_877GPsUD5">
    <mxGraphModel dx="787" dy="1024" grid="1" gridSize="10" guides="1" tooltips="1" connect="1" arrows="1" fold="1" page="1" pageScale="1" pageWidth="827" pageHeight="1169" math="0" shadow="0">
      <root>
        <mxCell id="0" />
        <mxCell id="1" parent="0" />
        <mxCell id="HQ_MhvxfW-ssoNfK4CzG-3" value="" style="edgeStyle=orthogonalEdgeStyle;rounded=0;orthogonalLoop=1;jettySize=auto;html=1;" edge="1" parent="1" source="HQ_MhvxfW-ssoNfK4CzG-1" target="HQ_MhvxfW-ssoNfK4CzG-2">
          <mxGeometry relative="1" as="geometry" />
        </mxCell>
        <mxCell id="HQ_MhvxfW-ssoNfK4CzG-1" value="MERP" style="rounded=1;whiteSpace=wrap;html=1;" vertex="1" parent="1">
          <mxGeometry x="40" y="50" width="120" height="60" as="geometry" />
        </mxCell>
        <mxCell id="HQ_MhvxfW-ssoNfK4CzG-5" style="edgeStyle=orthogonalEdgeStyle;rounded=0;orthogonalLoop=1;jettySize=auto;html=1;" edge="1" parent="1" source="HQ_MhvxfW-ssoNfK4CzG-2" target="HQ_MhvxfW-ssoNfK4CzG-4">
          <mxGeometry relative="1" as="geometry" />
        </mxCell>
        <mxCell id="HQ_MhvxfW-ssoNfK4CzG-2" value="MAP &lt;br&gt;CNamedMultiDocTemplate&lt;br&gt;структуры для создания &lt;br&gt;document+view" style="rounded=1;whiteSpace=wrap;html=1;" vertex="1" parent="1">
          <mxGeometry x="90" y="210" width="260" height="150" as="geometry" />
        </mxCell>
        <mxCell id="HQ_MhvxfW-ssoNfK4CzG-4" value="CMERP_DocType1&lt;br&gt;Единственный шаблон документа. Только обработка&lt;br&gt;закрытия документа." style="rounded=1;whiteSpace=wrap;html=1;" vertex="1" parent="1">
          <mxGeometry x="430" y="235" width="180" height="100" as="geometry" />
        </mxCell>
      </root>
    </mxGraphModel>
  </diagram>
</mxfile>
